<svg id="visual" viewBox="0 0 900 600" width="900" height="600" xmlns="http://www.w3.org/2000/svg" xmlns:xlink="http://www.w3.org/1999/xlink" version="1.1"><rect x="0" y="0" width="900" height="600" fill="#110e24"></rect><path d="M0 429L129 379L257 427L386 391L514 394L643 404L771 418L900 407L900 601L771 601L643 601L514 601L386 601L257 601L129 601L0 601Z" fill="#181533"></path><path d="M0 472L129 455L257 460L386 420L514 466L643 478L771 409L900 466L900 601L771 601L643 601L514 601L386 601L257 601L129 601L0 601Z" fill="#1b1737"></path><path d="M0 480L129 456L257 484L386 451L514 469L643 456L771 490L900 459L900 601L771 601L643 601L514 601L386 601L257 601L129 601L0 601Z" fill="#1e1a3b"></path><path d="M0 540L129 506L257 496L386 540L514 510L643 494L771 510L900 524L900 601L771 601L643 601L514 601L386 601L257 601L129 601L0 601Z" fill="#211d3f"></path><path d="M0 540L129 547L257 533L386 550L514 528L643 548L771 540L900 538L900 601L771 601L643 601L514 601L386 601L257 601L129 601L0 601Z" fill="#242043"></path></svg>